# Blender 4.0.2
# www.blender.org
mtllib Lamp Switch.mtl
o Switch
v 0.025298 0.043721 0.438730
v 0.025298 0.043721 0.453653
v -0.011948 0.043721 0.462494
v 0.025298 0.043721 0.462494
v 0.025298 0.043721 0.503941
v -0.011948 0.043721 0.503941
v -0.011948 0.043721 0.497859
v 0.025298 0.043721 0.497859
v 0.025298 0.043721 0.444812
v 0.025298 0.043721 0.471335
v 0.025298 0.043721 0.480176
v 0.025298 0.043721 0.489018
v -0.011948 0.043721 0.489018
v -0.011948 0.043721 0.480176
v -0.011948 0.043721 0.471335
v -0.011948 0.043721 0.453653
v -0.011948 0.043721 0.444812
v -0.011948 0.046751 0.438730
v 0.025298 0.046949 0.438730
v 0.025298 0.046949 0.453653
v -0.011948 0.046925 0.462494
v 0.025298 0.046949 0.462494
v 0.025298 0.050968 0.503941
v -0.011948 0.050943 0.503941
v -0.011948 0.050194 0.497859
v 0.025298 0.050218 0.497859
v 0.025298 0.046949 0.444812
v 0.025298 0.046949 0.471335
v 0.025298 0.048039 0.480176
v 0.025298 0.049128 0.489018
v -0.011948 0.049104 0.489018
v -0.011948 0.048014 0.480176
v -0.011948 0.046925 0.471335
v -0.011948 0.046925 0.453653
v -0.011948 0.046925 0.444812
v -0.011948 0.043721 0.438730
vn -1.0000 -0.0000 -0.0000
vn -0.0000 -0.0000 1.0000
vn 1.0000 -0.0000 -0.0000
vn -0.0000 -0.0000 -1.0000
vn -0.0007 0.9981 -0.0613
vn -0.0007 1.0000 -0.0000
vn -0.0018 1.0000 -0.0071
vn -0.0030 0.9999 -0.0143
vn -0.0007 0.9925 -0.1223
vn -0.0006 0.9925 -0.1223
vn -0.0000 -1.0000 -0.0000
vt 0.917982 0.721167
vt 0.917982 0.654134
vt 0.953298 0.654134
vt 0.951386 0.721167
vt 0.002412 0.002759
vt 0.412935 0.002412
vt 0.413003 0.082287
vt 0.002480 0.082365
vt 0.913157 0.556683
vt 0.913157 0.654134
vt 0.877572 0.654134
vt 0.877573 0.556683
vt 0.917982 0.166897
vt 0.917982 0.069445
vt 0.989327 0.069445
vt 0.977317 0.166897
vt 0.913157 0.459235
vt 0.877573 0.459235
vt 0.917982 0.264344
vt 0.965307 0.264344
vt 0.913157 0.361790
vt 0.877573 0.361790
vt 0.917982 0.361790
vt 0.953298 0.361790
vt 0.913157 0.264344
vt 0.865563 0.264344
vt 0.917982 0.459235
vt 0.953298 0.459235
vt 0.913157 0.166897
vt 0.853554 0.166897
vt 0.412930 0.839345
vt 0.002412 0.837268
vt 0.002581 0.803865
vt 0.413110 0.803760
vt 0.917982 0.556683
vt 0.953298 0.556683
vt 0.913157 0.069445
vt 0.841544 0.069445
vt 0.917982 0.002412
vt 0.997588 0.002412
vt 0.913157 0.002412
vt 0.833283 0.002412
vt 0.913157 0.721167
vt 0.877572 0.721167
vt 0.002519 0.444461
vt 0.413042 0.444383
vt 0.413061 0.541829
vt 0.002538 0.541906
vt 0.413079 0.639276
vt 0.002556 0.639354
vt 0.413097 0.736728
vt 0.002574 0.736805
vt 0.413010 0.149827
vt 0.002487 0.149904
vt 0.413021 0.248016
vt 0.002498 0.248093
vt 0.413031 0.346200
vt 0.002508 0.346278
vt 0.417935 0.654134
vt 0.828458 0.654134
vt 0.828458 0.721167
vt 0.417935 0.721167
vt 0.417935 0.556683
vt 0.828458 0.556683
vt 0.417935 0.459235
vt 0.828458 0.459235
vt 0.417935 0.361790
vt 0.828458 0.361790
vt 0.417935 0.264344
vt 0.828458 0.264344
vt 0.417935 0.166897
vt 0.828458 0.166897
vt 0.417935 0.069445
vt 0.828458 0.069445
vt 0.417935 0.002412
vt 0.828458 0.002412
s 1
usemtl Lamp
f 36/1/1 17/2/1 35/3/1 18/4/1
f 6/5/2 5/6/2 23/7/2 24/8/2
f 2/9/3 9/10/3 27/11/3 20/12/3
f 13/13/1 7/14/1 25/15/1 31/16/1
f 4/17/3 2/9/3 20/12/3 22/18/3
f 14/19/1 13/13/1 31/16/1 32/20/1
f 10/21/3 4/17/3 22/18/3 28/22/3
f 15/23/1 14/19/1 32/20/1 33/24/1
f 11/25/3 10/21/3 28/22/3 29/26/3
f 3/27/1 15/23/1 33/24/1 21/28/1
f 12/29/3 11/25/3 29/26/3 30/30/3
f 1/31/4 36/32/4 18/33/4 19/34/4
f 16/35/1 3/27/1 21/28/1 34/36/1
f 8/37/3 12/29/3 30/30/3 26/38/3
f 7/14/1 6/39/1 24/40/1 25/15/1
f 17/2/1 16/35/1 34/36/1 35/3/1
f 5/41/3 8/37/3 26/38/3 23/42/3
f 9/10/3 1/43/3 19/44/3 27/11/3
f 33/45/5 28/46/5 22/47/6 21/48/6
f 21/48/6 22/47/6 20/49/6 34/50/6
f 34/50/6 20/49/6 27/51/7 35/52/7
f 35/52/7 27/51/7 19/34/8 18/33/8
f 24/8/9 23/7/9 26/53/9 25/54/9
f 25/54/9 26/53/9 30/55/10 31/56/10
f 31/56/10 30/55/10 29/57/10 32/58/10
f 32/58/10 29/57/10 28/46/5 33/45/5
f 7/59/11 8/60/11 5/61/11 6/62/11
f 13/63/11 12/64/11 8/60/11 7/59/11
f 14/65/11 11/66/11 12/64/11 13/63/11
f 15/67/11 10/68/11 11/66/11 14/65/11
f 3/69/11 4/70/11 10/68/11 15/67/11
f 16/71/11 2/72/11 4/70/11 3/69/11
f 17/73/11 9/74/11 2/72/11 16/71/11
f 36/75/11 1/76/11 9/74/11 17/73/11
